<?xml version="1.0" encoding="UTF-8" standalone="no"?>
<!DOCTYPE svg PUBLIC "-//W3C//DTD SVG 1.1//EN" "http://www.w3.org/Graphics/SVG/1.1/DTD/svg11.dtd">
<svg xmlns="http://www.w3.org/2000/svg" viewBox="0 0 160 222" width="64px" height="128px" aria-hidden="true" focusable="false">
	<path d="M157.574 145.502L157.574 59.2069C157.574 56.5651 157.257 54.6096 155.678 53.0267L115.544 12.8968C114.341 11.6932 112.672 11 110.964 11L10.8743 11C6.78407 11 2.38 14.1591 2.38 21.0911L2.38 145.502L157.574 145.502ZM109.292 22.6948C109.292 21.1152 111.199 20.3255 112.316 21.4429L147.132 56.2582C148.249 57.3756 147.459 59.2827 145.88 59.2827L109.292 59.2827L109.292 22.6948ZM99.9559 75.5161C98.6075 74.1676 98.6075 71.988 99.9559 70.6395C101.304 69.291 103.484 69.291 104.832 70.6395L125.525 91.3321C126.874 92.6806 126.874 94.8602 125.525 96.2087L104.832 116.901C104.16 117.574 103.277 117.912 102.394 117.912C101.511 117.912 100.628 117.574 99.9559 116.901C98.6075 115.553 98.6075 113.373 99.9559 112.025L118.21 93.7704L99.9559 75.5161ZM37.8781 91.3321L58.5707 70.6395C59.9192 69.291 62.0988 69.291 63.4473 70.6395C64.7958 71.988 64.7958 74.1676 63.4473 75.5161L45.193 93.7704L63.4473 112.025C64.7958 113.373 64.7958 115.553 63.4473 116.901C62.7748 117.574 61.8919 117.912 61.009 117.912C60.1261 117.912 59.2433 117.574 58.5707 116.901L37.8782 96.2087C36.5297 94.8602 36.5297 92.6806 37.8781 91.3321Z" />
	<path d="M2.42552 152.371L2.42552 204.103C2.42552 207.582 6.54508 211 10.8319 211L149.106 211C153.393 211 157.62 207.582 157.62 204.103L157.62 152.371L2.42552 152.371ZM101.362 161.532C104.993 161.532 108.092 162.474 110.631 164.226C113.169 165.979 114.51 168.782 114.51 172.633L110.092 172.633C109.856 170.778 109.353 169.312 108.583 168.322C107.153 166.514 104.681 165.627 101.254 165.627C98.488 165.627 96.5369 166.189 95.3267 167.352C94.1164 168.515 93.4945 169.907 93.4945 171.447C93.4945 173.145 94.2354 174.326 95.65 175.111C96.5773 175.614 98.6317 176.297 101.901 177.051L106.751 178.129C109.093 178.664 110.866 179.357 112.139 180.285C114.34 181.903 115.48 184.317 115.48 187.398C115.48 191.233 114.067 193.938 111.277 195.589C108.487 197.239 105.271 198.067 101.578 198.067C97.2711 198.067 93.8829 197.035 91.4468 194.834C89.0107 192.649 87.8431 189.63 87.8903 185.889L92.309 185.889C92.419 187.854 92.8928 189.405 93.71 190.631C95.266 192.926 97.9716 194.08 101.901 194.08C103.661 194.08 105.305 193.828 106.751 193.325C109.548 192.351 110.954 190.667 110.954 188.152C110.954 186.266 110.301 184.858 109.122 184.057C107.927 183.271 106.064 182.591 103.517 182.009L98.8832 181.039C95.8184 180.348 93.5821 179.501 92.309 178.668C90.1086 177.222 89.0758 175.078 89.0758 172.202C89.0758 169.09 90.1558 166.546 92.309 164.55C94.4622 162.554 97.417 161.532 101.362 161.532ZM17.1905 162.394L32.8178 162.394C35.8983 162.394 38.3681 163.352 40.2542 165.089C42.1402 166.825 43.0563 169.274 43.0563 172.417C43.0563 175.12 42.2592 177.419 40.5775 179.422C38.8958 181.426 36.307 182.44 32.8178 182.44L21.9326 182.44L21.9326 197.097L17.1905 197.097L17.1905 162.394ZM48.9839 162.394L53.6181 162.394L53.6181 192.894L71.1853 192.894L71.1853 197.097L48.9839 197.097L48.9839 162.394ZM76.8973 162.394L81.6394 162.394L81.6394 197.097L76.8973 197.097L76.8973 162.394ZM118.498 162.394L146.627 162.394L146.627 166.597L134.987 166.597L134.987 197.097L130.138 197.097L130.138 166.597L118.498 166.597L118.498 162.394ZM21.9326 166.49L21.9326 178.452L31.2012 178.452C33.3072 178.452 35.0619 178.055 36.3743 177.159C37.6867 176.263 38.3142 174.68 38.3142 172.417C38.3142 169.871 37.3982 168.156 35.5121 167.244C34.4748 166.757 33.0086 166.49 31.2012 166.49L21.9326 166.49Z" />
</svg>